<svg width="167" height="36" viewBox="0 0 167 36" fill="none" xmlns="http://www.w3.org/2000/svg">
<path d="M18.0003 23.5829C17.1901 23.5865 16.3905 23.388 15.6673 23.0038C14.9441 22.6195 14.3177 22.0604 13.8397 21.3724L10.5078 23.3852C10.6346 23.5389 10.7847 23.6695 10.9521 23.7716L16.8811 27.3659C17.2277 27.5521 17.6112 27.6491 18.0003 27.6491C18.3894 27.6491 18.773 27.5521 19.1195 27.3659L25.0485 23.7716C25.2159 23.6695 25.366 23.5389 25.4928 23.3852L22.1695 21.3364C21.6942 22.0324 21.0682 22.5992 20.3431 22.9898C19.6181 23.3805 18.815 23.5838 18.0003 23.5829Z" fill="#0079BF"/>
<path d="M12.7836 18.1585C12.7866 16.8806 13.2779 15.6486 14.1634 14.698C15.049 13.7473 16.2668 13.1447 17.584 13.0053V9.13184C17.3842 9.1719 17.1919 9.24142 17.014 9.33797L10.8331 12.7734C10.4971 12.9902 10.2178 13.279 10.017 13.6172C9.81607 13.9555 9.69914 14.3339 9.67529 14.7231V21.594C9.67804 21.7922 9.71101 21.9891 9.77324 22.178L13.2467 20.2456C12.943 19.5887 12.7852 18.8778 12.7836 18.1585Z" fill="#0079BF"/>
<path d="M25.2282 12.7711L19.3725 9.33784C19.204 9.24134 19.0219 9.17186 18.8325 9.13184V12.9942C19.628 13.0859 20.3913 13.3663 21.0607 13.8129C21.7302 14.2594 22.2873 14.8597 22.6871 15.5653C23.0868 16.2708 23.3181 17.0621 23.3623 17.8752C23.4065 18.6884 23.2624 19.5007 22.9416 20.2469L26.2322 22.178C26.2912 21.9892 26.3224 21.7925 26.325 21.5944V14.728C26.3037 14.3376 26.1935 13.9577 26.0032 13.6181C25.8128 13.2785 25.5475 12.9885 25.2282 12.7711Z" fill="#0079BF"/>
<path d="M29.4935 9.33008L19.8269 3.67779C19.26 3.38989 18.6345 3.23999 18.0002 3.23999C17.3659 3.23999 16.7404 3.38989 16.1735 3.67779L6.50685 9.33008C5.97625 9.68006 5.53449 10.1514 5.21714 10.7062C4.89983 11.2609 4.71589 11.8833 4.68018 12.5233V23.8278C4.71522 24.4691 4.89883 25.0931 5.21614 25.6494C5.53345 26.2056 5.97559 26.6785 6.50685 27.0299L16.1735 32.6823C16.7404 32.9702 17.3659 33.12 18.0002 33.12C18.6345 33.12 19.26 32.9702 19.8269 32.6823L29.4935 27.0299C30.0248 26.6785 30.4669 26.2056 30.7842 25.6494C31.1015 25.0931 31.2851 24.4691 31.3202 23.8278V12.5233C31.2845 11.8833 31.1005 11.2609 30.7832 10.7062C30.4659 10.1514 30.0241 9.68006 29.4935 9.33008ZM28.2524 22.5275C28.224 23.0202 28.0819 23.4993 27.8375 23.9263C27.5932 24.3534 27.2533 24.7165 26.8452 24.9866L19.3986 29.3386C18.9636 29.5609 18.4831 29.6768 17.9958 29.6768C17.5085 29.6768 17.028 29.5609 16.593 29.3386L9.15515 24.9866C8.74702 24.7165 8.40715 24.3534 8.16281 23.9263C7.91843 23.4993 7.77637 23.0202 7.74798 22.5275V13.8324C7.77637 13.3398 7.91843 12.8607 8.16281 12.4337C8.40715 12.0066 8.74702 11.6435 9.15515 11.3734L16.5843 7.02141C17.0192 6.79908 17.4997 6.68322 17.9871 6.68322C18.4744 6.68322 18.9549 6.79908 19.3899 7.02141L26.8365 11.3734C27.2462 11.6425 27.5878 12.0052 27.8337 12.4323C28.0796 12.8594 28.223 13.339 28.2524 13.8324V22.5275Z" fill="#0079BF"/>
<path d="M14.2539 18.18C14.2539 18.8874 14.4736 19.5791 14.8852 20.1673C15.2969 20.7556 15.882 21.2141 16.5665 21.4849C17.2511 21.7556 18.0043 21.8264 18.731 21.6884C19.4577 21.5504 20.1252 21.2097 20.6491 20.7094C21.1731 20.2092 21.5299 19.5717 21.6744 18.8779C21.819 18.1839 21.7448 17.4647 21.4612 16.811C21.1777 16.1574 20.6976 15.5987 20.0815 15.2056C19.4654 14.8126 18.7411 14.6028 18.0002 14.6028C17.0066 14.6028 16.0537 14.9797 15.3512 15.6505C14.6486 16.3214 14.2539 17.2313 14.2539 18.18Z" fill="#0079BF"/>
<path d="M50.8262 26H48.4727V13.7148H44.293V11.7227H54.9961V13.7148H50.8262V26ZM61.1875 14.9844C62.5547 14.9844 63.5866 15.2871 64.2832 15.8926C64.9863 16.498 65.3379 17.4421 65.3379 18.7246V26H63.707L63.2676 24.4668H63.1895C62.8835 24.8574 62.5677 25.1797 62.2422 25.4336C61.9167 25.6875 61.5391 25.8763 61.1094 26C60.6862 26.1302 60.1686 26.1953 59.5566 26.1953C58.9121 26.1953 58.3359 26.0781 57.8281 25.8438C57.3203 25.6029 56.9199 25.2383 56.627 24.75C56.334 24.2617 56.1875 23.6432 56.1875 22.8945C56.1875 21.7812 56.6009 20.9447 57.4277 20.3848C58.2611 19.8249 59.5176 19.5156 61.1973 19.457L63.0723 19.3887V18.8223C63.0723 18.0736 62.8965 17.5397 62.5449 17.2207C62.1999 16.9017 61.7116 16.7422 61.0801 16.7422C60.5397 16.7422 60.0156 16.8203 59.5078 16.9766C59 17.1328 58.5052 17.3249 58.0234 17.5527L57.2812 15.9316C57.8086 15.6517 58.4076 15.4238 59.0781 15.248C59.7552 15.0723 60.4583 14.9844 61.1875 14.9844ZM63.0625 20.834L61.666 20.8828C60.5202 20.9219 59.7161 21.1172 59.2539 21.4688C58.7917 21.8203 58.5605 22.3021 58.5605 22.9141C58.5605 23.4479 58.7201 23.8385 59.0391 24.0859C59.3581 24.3268 59.778 24.4473 60.2988 24.4473C61.0931 24.4473 61.7507 24.2227 62.2715 23.7734C62.7988 23.3177 63.0625 22.6504 63.0625 21.7715V20.834ZM75.8164 22.9141C75.8164 23.6237 75.6439 24.2227 75.2988 24.7109C74.9538 25.1992 74.4492 25.5703 73.7852 25.8242C73.1276 26.0716 72.3203 26.1953 71.3633 26.1953C70.6081 26.1953 69.957 26.14 69.4102 26.0293C68.8698 25.9251 68.3587 25.7624 67.877 25.541V23.5586C68.3913 23.7995 68.9674 24.0078 69.6055 24.1836C70.25 24.3594 70.8587 24.4473 71.4316 24.4473C72.1868 24.4473 72.7305 24.3301 73.0625 24.0957C73.3945 23.8548 73.5605 23.5358 73.5605 23.1387C73.5605 22.9043 73.4922 22.696 73.3555 22.5137C73.2253 22.3249 72.9779 22.1328 72.6133 21.9375C72.2552 21.7357 71.7279 21.4948 71.0312 21.2148C70.3477 20.9414 69.7715 20.668 69.3027 20.3945C68.834 20.1211 68.4792 19.7923 68.2383 19.4082C67.9974 19.0176 67.877 18.5195 67.877 17.9141C67.877 16.957 68.2546 16.2311 69.0098 15.7363C69.7715 15.235 70.7773 14.9844 72.0273 14.9844C72.6914 14.9844 73.3164 15.0527 73.9023 15.1895C74.4948 15.3197 75.0742 15.5117 75.6406 15.7656L74.918 17.4941C74.4297 17.2793 73.9382 17.1035 73.4434 16.9668C72.9551 16.8236 72.457 16.752 71.9492 16.752C71.3568 16.752 70.9043 16.8431 70.5918 17.0254C70.2858 17.2077 70.1328 17.4681 70.1328 17.8066C70.1328 18.0605 70.2077 18.2754 70.3574 18.4512C70.5072 18.627 70.7643 18.8027 71.1289 18.9785C71.5 19.1543 72.0143 19.3724 72.6719 19.6328C73.3164 19.8802 73.873 20.1406 74.3418 20.4141C74.8171 20.681 75.1816 21.0098 75.4355 21.4004C75.6895 21.791 75.8164 22.2956 75.8164 22.9141ZM80.5918 10.8047V18.1484C80.5918 18.4805 80.5788 18.8451 80.5527 19.2422C80.5267 19.6328 80.5007 20.0007 80.4746 20.3457H80.5234C80.6927 20.1178 80.8945 19.8509 81.1289 19.5449C81.3698 19.2389 81.5977 18.972 81.8125 18.7441L85.1133 15.1895H87.75L83.4238 19.8379L88.0332 26H85.3379L81.8809 21.2539L80.5918 22.3574V26H78.2969V10.8047H80.5918ZM100.143 26H97.7891V13.7148H93.6094V11.7227H104.312V13.7148H100.143V26ZM111.744 14.9844C111.926 14.9844 112.125 14.9941 112.34 15.0137C112.555 15.0332 112.74 15.0592 112.896 15.0918L112.682 17.2402C112.545 17.2012 112.376 17.1719 112.174 17.1523C111.979 17.1328 111.803 17.123 111.646 17.123C111.236 17.123 110.846 17.1914 110.475 17.3281C110.104 17.4583 109.775 17.6602 109.488 17.9336C109.202 18.2005 108.977 18.5358 108.814 18.9395C108.652 19.3431 108.57 19.8118 108.57 20.3457V26H106.266V15.1895H108.062L108.375 17.0938H108.482C108.697 16.7096 108.964 16.3581 109.283 16.0391C109.602 15.7201 109.967 15.4661 110.377 15.2773C110.794 15.082 111.249 14.9844 111.744 14.9844ZM119.137 14.9844C120.504 14.9844 121.536 15.2871 122.232 15.8926C122.936 16.498 123.287 17.4421 123.287 18.7246V26H121.656L121.217 24.4668H121.139C120.833 24.8574 120.517 25.1797 120.191 25.4336C119.866 25.6875 119.488 25.8763 119.059 26C118.635 26.1302 118.118 26.1953 117.506 26.1953C116.861 26.1953 116.285 26.0781 115.777 25.8438C115.27 25.6029 114.869 25.2383 114.576 24.75C114.283 24.2617 114.137 23.6432 114.137 22.8945C114.137 21.7812 114.55 20.9447 115.377 20.3848C116.21 19.8249 117.467 19.5156 119.146 19.457L121.021 19.3887V18.8223C121.021 18.0736 120.846 17.5397 120.494 17.2207C120.149 16.9017 119.661 16.7422 119.029 16.7422C118.489 16.7422 117.965 16.8203 117.457 16.9766C116.949 17.1328 116.454 17.3249 115.973 17.5527L115.23 15.9316C115.758 15.6517 116.357 15.4238 117.027 15.248C117.704 15.0723 118.408 14.9844 119.137 14.9844ZM121.012 20.834L119.615 20.8828C118.469 20.9219 117.665 21.1172 117.203 21.4688C116.741 21.8203 116.51 22.3021 116.51 22.9141C116.51 23.4479 116.669 23.8385 116.988 24.0859C117.307 24.3268 117.727 24.4473 118.248 24.4473C119.042 24.4473 119.7 24.2227 120.221 23.7734C120.748 23.3177 121.012 22.6504 121.012 21.7715V20.834ZM130.855 26.1953C129.833 26.1953 128.948 25.9967 128.199 25.5996C127.451 25.2025 126.874 24.5938 126.471 23.7734C126.067 22.9531 125.865 21.9115 125.865 20.6484C125.865 19.3333 126.087 18.2591 126.529 17.4258C126.972 16.5924 127.584 15.9772 128.365 15.5801C129.153 15.1829 130.055 14.9844 131.07 14.9844C131.715 14.9844 132.298 15.0495 132.818 15.1797C133.346 15.3034 133.792 15.4564 134.156 15.6387L133.473 17.4746C133.076 17.3118 132.669 17.1751 132.252 17.0645C131.835 16.9538 131.435 16.8984 131.051 16.8984C130.419 16.8984 129.892 17.0384 129.469 17.3184C129.052 17.5983 128.74 18.015 128.531 18.5684C128.329 19.1217 128.229 19.8086 128.229 20.6289C128.229 21.4232 128.333 22.0938 128.541 22.6406C128.749 23.181 129.059 23.5911 129.469 23.8711C129.879 24.1445 130.383 24.2812 130.982 24.2812C131.575 24.2812 132.105 24.2096 132.574 24.0664C133.043 23.9232 133.486 23.7376 133.902 23.5098V25.502C133.492 25.7363 133.053 25.9089 132.584 26.0195C132.115 26.1367 131.539 26.1953 130.855 26.1953ZM138.736 10.8047V18.1484C138.736 18.4805 138.723 18.8451 138.697 19.2422C138.671 19.6328 138.645 20.0007 138.619 20.3457H138.668C138.837 20.1178 139.039 19.8509 139.273 19.5449C139.514 19.2389 139.742 18.972 139.957 18.7441L143.258 15.1895H145.895L141.568 19.8379L146.178 26H143.482L140.025 21.2539L138.736 22.3574V26H136.441V10.8047H138.736ZM152.213 14.9844C153.176 14.9844 154.003 15.1829 154.693 15.5801C155.383 15.9772 155.914 16.5404 156.285 17.2695C156.656 17.9987 156.842 18.8711 156.842 19.8867V21.1172H149.625C149.651 22.1654 149.931 22.9727 150.465 23.5391C151.005 24.1055 151.76 24.3887 152.73 24.3887C153.421 24.3887 154.039 24.3236 154.586 24.1934C155.139 24.0566 155.709 23.8581 156.295 23.5977V25.4629C155.755 25.7168 155.204 25.9023 154.645 26.0195C154.085 26.1367 153.414 26.1953 152.633 26.1953C151.572 26.1953 150.637 25.9902 149.83 25.5801C149.029 25.1634 148.401 24.5449 147.945 23.7246C147.496 22.9043 147.271 21.8854 147.271 20.668C147.271 19.457 147.477 18.4284 147.887 17.582C148.297 16.7357 148.873 16.0911 149.615 15.6484C150.357 15.2057 151.223 14.9844 152.213 14.9844ZM152.213 16.7129C151.49 16.7129 150.904 16.9473 150.455 17.416C150.012 17.8848 149.752 18.5716 149.674 19.4766H154.596C154.589 18.9362 154.498 18.4577 154.322 18.041C154.153 17.6243 153.893 17.2988 153.541 17.0645C153.196 16.8301 152.753 16.7129 152.213 16.7129ZM164.908 14.9844C165.09 14.9844 165.289 14.9941 165.504 15.0137C165.719 15.0332 165.904 15.0592 166.061 15.0918L165.846 17.2402C165.709 17.2012 165.54 17.1719 165.338 17.1523C165.143 17.1328 164.967 17.123 164.811 17.123C164.4 17.123 164.01 17.1914 163.639 17.3281C163.268 17.4583 162.939 17.6602 162.652 17.9336C162.366 18.2005 162.141 18.5358 161.979 18.9395C161.816 19.3431 161.734 19.8118 161.734 20.3457V26H159.43V15.1895H161.227L161.539 17.0938H161.646C161.861 16.7096 162.128 16.3581 162.447 16.0391C162.766 15.7201 163.131 15.4661 163.541 15.2773C163.958 15.082 164.413 14.9844 164.908 14.9844Z" fill="#0079BF"/>
</svg>
