<svg width="16" height="16" viewBox="0 0 16 16" fill="none" xmlns="http://www.w3.org/2000/svg">
<path d="M1.31338 4.42866L1.27793 3.69231C1.27793 2.75767 2.08048 2 3.07048 2H6.36122C6.83663 2 7.29258 2.1783 7.62874 2.49567L8.37124 3.19664C8.70741 3.51401 9.16335 3.69231 9.63877 3.69231H13.2073C14.2614 3.69231 15.0879 4.54679 14.9925 5.53783L14.4221 11.4609C14.3382 12.3326 13.5641 13 12.6369 13H3.36305C2.43594 13 1.6618 12.3326 1.57786 11.4609L1.00751 5.53783C0.968022 5.12778 1.08638 4.7411 1.31338 4.42866ZM2.7927 4.53846C2.26566 4.53846 1.85239 4.9657 1.9001 5.46122L2.47046 11.3843C2.51243 11.8201 2.8995 12.1538 3.36305 12.1538H12.6369C13.1005 12.1538 13.4876 11.8201 13.5295 11.3843L14.0999 5.46122C14.1476 4.9657 13.7343 4.53846 13.2073 4.53846H2.7927ZM6.99498 3.09399C6.8269 2.9353 6.59893 2.84615 6.36122 2.84615H3.07048C2.58113 2.84615 2.18338 3.21639 2.17436 3.67634L2.18 3.79355C2.37073 3.72811 2.57695 3.69231 2.7927 3.69231H7.62874L6.99498 3.09399Z" fill="#343A40"/>
</svg>
