<svg width="16" height="16" viewBox="0 0 16 16" fill="none" xmlns="http://www.w3.org/2000/svg">
<path fill-rule="evenodd" clip-rule="evenodd" d="M8.67664 2.15924C8.90561 2.3731 8.9075 2.72163 8.68087 2.93769L2.98156 8.37115C1.89504 9.40698 1.89504 11.0887 2.98156 12.1246C4.06479 13.1573 5.81857 13.1573 6.90181 12.1246L13.3135 6.01192C14.0066 5.35118 14.0066 4.27761 13.3135 3.61688C12.6238 2.95927 11.5079 2.95927 10.8181 3.61688L5.35627 8.82393C5.05666 9.10957 5.05666 9.57498 5.35627 9.86061C5.6526 10.1431 6.13054 10.1431 6.42687 9.86061L11.1763 5.33274C11.4029 5.11667 11.7723 5.11489 12.0012 5.32875C12.2302 5.54262 12.2321 5.89114 12.0055 6.10721L7.25604 10.6351C6.50315 11.3529 5.27999 11.3529 4.5271 10.6351C3.77749 9.92045 3.77749 8.7641 4.5271 8.04946L9.98894 2.8424C11.1353 1.74954 12.9964 1.74954 14.1427 2.8424C15.2858 3.93214 15.2858 5.69665 14.1427 6.78639L7.73098 12.899C6.19118 14.367 3.69218 14.367 2.15239 12.899C0.615871 11.4342 0.615871 9.06152 2.15239 7.59667L7.8517 2.16322C8.07833 1.94716 8.44767 1.94537 8.67664 2.15924Z" fill="black" stroke="white" stroke-width="0.1" stroke-linecap="round"/>
</svg>
