<svg width="16" height="16" viewBox="0 0 16 16" fill="none" xmlns="http://www.w3.org/2000/svg">
<path d="M4.625 2C4.83211 2 5 2.16789 5 2.375V2.75H11V2.375C11 2.16789 11.1679 2 11.375 2C11.5821 2 11.75 2.16789 11.75 2.375V2.75H12.5C13.3284 2.75 14 3.42157 14 4.25V12.5C14 13.3284 13.3284 14 12.5 14H3.5C2.67157 14 2 13.3284 2 12.5V4.25C2 3.42157 2.67157 2.75 3.5 2.75H4.25V2.375C4.25 2.16789 4.41789 2 4.625 2ZM3.5 3.5C3.08579 3.5 2.75 3.83579 2.75 4.25V5H13.25V4.25C13.25 3.83579 12.9142 3.5 12.5 3.5H3.5ZM13.25 5.75H2.75V12.5C2.75 12.9142 3.08579 13.25 3.5 13.25H12.5C12.9142 13.25 13.25 12.9142 13.25 12.5V5.75Z" fill="#111111"/>
</svg>
