<svg width="16" height="16" viewBox="0 0 16 16" fill="none" xmlns="http://www.w3.org/2000/svg">
<path d="M13.25 1.875C13.7332 1.875 14.125 2.26675 14.125 2.75V13.25C14.125 13.7332 13.7332 14.125 13.25 14.125H2.75C2.26675 14.125 1.875 13.7332 1.875 13.25V2.75C1.875 2.26675 2.26675 1.875 2.75 1.875H13.25ZM2.75 1C1.7835 1 1 1.7835 1 2.75V13.25C1 14.2165 1.7835 15 2.75 15H13.25C14.2165 15 15 14.2165 15 13.25V2.75C15 1.7835 14.2165 1 13.25 1H2.75Z" fill="#343A40"/>
<path d="M10.5985 5.34846C10.8547 5.09218 11.2703 5.09218 11.5265 5.34846C11.7797 5.6016 11.7828 6.01009 11.5358 6.26704L8.04267 10.6335C8.03763 10.6398 8.03224 10.6458 8.02653 10.6515C7.77025 10.9078 7.35474 10.9078 7.09846 10.6515L4.78281 8.3359C4.52653 8.07962 4.52653 7.6641 4.78281 7.40782C5.0391 7.15154 5.45461 7.15154 5.71089 7.40782L7.54272 9.23965L10.581 5.36809C10.5865 5.36121 10.5923 5.35465 10.5985 5.34846Z" fill="#343A40"/>
</svg>
