<svg width="28" height="28" viewBox="0 0 28 28" fill="none" xmlns="http://www.w3.org/2000/svg">
<path d="M7.4375 5.25C6.22938 5.25 5.25 6.22938 5.25 7.4375V20.5625C5.25 21.7706 6.22938 22.75 7.4375 22.75H20.5625C21.7706 22.75 22.75 21.7706 22.75 20.5625V7.4375C22.75 6.22938 21.7706 5.25 20.5625 5.25H7.4375ZM18.4082 10.6856C18.7246 11.002 18.7285 11.5126 18.4198 11.8338L14.0533 17.2919C14.047 17.2998 14.0403 17.3073 14.0332 17.3144C13.7128 17.6348 13.1934 17.6348 12.8731 17.3144L9.97852 14.4199C9.65817 14.0995 9.65817 13.5801 9.97852 13.2598C10.2989 12.9394 10.8183 12.9394 11.1386 13.2598L13.4284 15.5496L17.2263 10.7101C17.2331 10.7015 17.2403 10.6933 17.2481 10.6856C17.5684 10.3652 18.0878 10.3652 18.4082 10.6856Z" fill="#0079BF"/>
</svg>
