<svg width="16" height="16" viewBox="0 0 16 16" fill="none" xmlns="http://www.w3.org/2000/svg">
<path d="M3.39286 14C2.6236 14 2 13.3801 2 12.6154V3.38462C2 2.61991 2.6236 2 3.39286 2H10.8214C11.0778 2 11.2857 2.20664 11.2857 2.46154C11.2857 2.71644 11.0778 2.92308 10.8214 2.92308H3.39286C3.13644 2.92308 2.92857 3.12971 2.92857 3.38462V12.6154C2.92857 12.8703 3.13644 13.0769 3.39286 13.0769H12.6786C12.935 13.0769 13.1429 12.8703 13.1429 12.6154V8C13.1429 7.7451 13.3507 7.53846 13.6071 7.53846C13.8636 7.53846 14.0714 7.7451 14.0714 8V12.6154C14.0714 13.3801 13.4478 14 12.6786 14H3.39286Z" fill="#919191"/>
<path d="M8.36401 10.1725L14.864 3.71097C15.0453 3.53073 15.0453 3.2385 14.864 3.05826C14.6827 2.87802 14.3887 2.87802 14.2074 3.05826L8.03571 9.19344L5.5783 6.75057C5.39698 6.57032 5.10302 6.57032 4.9217 6.75057C4.74039 6.93081 4.74039 7.22304 4.9217 7.40328L7.70741 10.1725C7.88873 10.3528 8.1827 10.3528 8.36401 10.1725Z" fill="#919191"/>
</svg>
