<svg width="28" height="28" viewBox="0 0 28 28" fill="none" xmlns="http://www.w3.org/2000/svg">
<path d="M20.5625 6.34375C21.1666 6.34375 21.6562 6.83344 21.6562 7.4375V20.5625C21.6562 21.1666 21.1666 21.6562 20.5625 21.6562H7.4375C6.83344 21.6562 6.34375 21.1666 6.34375 20.5625V7.4375C6.34375 6.83344 6.83344 6.34375 7.4375 6.34375H20.5625ZM7.4375 5.25C6.22938 5.25 5.25 6.22938 5.25 7.4375V20.5625C5.25 21.7706 6.22938 22.75 7.4375 22.75H20.5625C21.7706 22.75 22.75 21.7706 22.75 20.5625V7.4375C22.75 6.22938 21.7706 5.25 20.5625 5.25H7.4375Z" fill="#919191"/>
</svg>
