<svg width="20" height="20" viewBox="0 0 20 20" fill="none" xmlns="http://www.w3.org/2000/svg">
<path d="M10 5.5C10 5.22386 9.77614 5 9.5 5C9.22386 5 9 5.22386 9 5.5V11C9 11.1794 9.09614 11.3451 9.25193 11.4341L12.7519 13.4341C12.9917 13.5711 13.2971 13.4878 13.4341 13.2481C13.5711 13.0083 13.4878 12.7029 13.2481 12.5659L10 10.7098V5.5Z" fill="#343A40"/>
<path d="M10 18C14.4183 18 18 14.4183 18 10C18 5.58172 14.4183 2 10 2C5.58172 2 2 5.58172 2 10C2 14.4183 5.58172 18 10 18ZM17 10C17 13.866 13.866 17 10 17C6.13401 17 3 13.866 3 10C3 6.13401 6.13401 3 10 3C13.866 3 17 6.13401 17 10Z" fill="#343A40"/>
</svg>
