<svg width="18" height="18" viewBox="0 0 18 18" fill="none" xmlns="http://www.w3.org/2000/svg" fill="#current" >
<path  d="M2.7498 3.56546C2.7498 3.10648 3.12944 2.73275 3.5998 2.73275H14.3998C14.8702 2.73275 15.2498 3.10648 15.2498 3.56546V13.6732L13.5348 11.9912C13.1878 11.6508 12.7174 11.4598 12.227 11.4598H3.5998C3.12944 11.4598 2.7498 11.0861 2.7498 10.6271V3.56546ZM16.2498 3.56546C16.2498 2.56193 15.4206 1.75005 14.3998 1.75005H3.5998C2.579 1.75005 1.7498 2.56193 1.7498 3.56546V10.6271C1.7498 11.6306 2.579 12.4425 3.5998 12.4425H12.227C12.4528 12.4425 12.6691 12.5305 12.8284 12.6867L15.3966 15.2056C15.7103 15.5132 16.2498 15.2973 16.2498 14.8578V3.56546Z" fill="#919191" stroke="#919191" stroke-width="0.1"/>
</svg>
