<svg width="28" height="28" viewBox="0 0 28 28" fill="none" xmlns="http://www.w3.org/2000/svg">
<path d="M14.0001 24.5C15.4728 24.5 16.6667 23.3247 16.6667 21.875H11.3334C11.3334 23.3247 12.5273 24.5 14.0001 24.5Z" fill="#919191"/>
<path d="M14.0001 6.0177L12.9372 6.22902C10.5008 6.71338 8.66678 8.83483 8.66678 11.375C8.66678 12.199 8.48762 14.2589 8.05496 16.2866C7.84017 17.2932 7.5528 18.3413 7.17087 19.25H20.8293C20.4474 18.3413 20.16 17.2932 19.9452 16.2866C19.5126 14.2589 19.3334 12.199 19.3334 11.375C19.3334 8.83481 17.4994 6.71335 15.063 6.22901L14.0001 6.0177ZM22.2925 19.25C22.5902 19.8372 22.9354 20.3013 23.3334 20.5625H4.66675C5.06478 20.3013 5.41001 19.8372 5.70768 19.25C6.90571 16.8867 7.33344 12.5289 7.33344 11.375C7.33344 8.19788 9.62702 5.54809 12.6732 4.94249C12.6689 4.89973 12.6667 4.85637 12.6667 4.8125C12.6667 4.08763 13.2637 3.5 14.0001 3.5C14.7365 3.5 15.3334 4.08763 15.3334 4.8125C15.3334 4.85636 15.3312 4.89972 15.327 4.94248C18.3732 5.54805 20.6668 8.19786 20.6668 11.375C20.6668 12.5289 21.0945 16.8867 22.2925 19.25Z" fill="#919191"/>
</svg>
