<svg width="16" height="16" viewBox="0 0 16 16" fill="none" xmlns="http://www.w3.org/2000/svg">
<path d="M12.3077 1H6.38462C5.44998 1 4.69231 1.7835 4.69231 2.75C3.75767 2.75 3 3.5335 3 4.5V13.25C3 14.2165 3.75767 15 4.69231 15H10.6154C11.55 15 12.3077 14.2165 12.3077 13.25C13.2423 13.25 14 12.4665 14 11.5V2.75C14 1.7835 13.2423 1 12.3077 1ZM12.3077 12.375V4.5C12.3077 3.5335 11.55 2.75 10.6154 2.75H5.53846C5.53846 2.26675 5.9173 1.875 6.38462 1.875H12.3077C12.775 1.875 13.1538 2.26675 13.1538 2.75V11.5C13.1538 11.9832 12.775 12.375 12.3077 12.375ZM3.84615 4.5C3.84615 4.01675 4.22499 3.625 4.69231 3.625H10.6154C11.0827 3.625 11.4615 4.01675 11.4615 4.5V13.25C11.4615 13.7332 11.0827 14.125 10.6154 14.125H4.69231C4.22499 14.125 3.84615 13.7332 3.84615 13.25V4.5Z" fill="#343A40"/>
</svg>
