<svg width="18" height="18" viewBox="0 0 18 18" fill="none" xmlns="http://www.w3.org/2000/svg">
<path d="M3 4.8H15M6.33333 4.8V3.4C6.33333 3.0287 6.47381 2.6726 6.72386 2.41005C6.97391 2.1475 7.31304 2 7.66667 2H10.3333C10.687 2 11.0261 2.1475 11.2761 2.41005C11.5262 2.6726 11.6667 3.0287 11.6667 3.4V4.8M13.6667 4.8V14.6C13.6667 14.9713 13.5262 15.3274 13.2761 15.5899C13.0261 15.8525 12.687 16 12.3333 16H5.66667C5.31304 16 4.97391 15.8525 4.72386 15.5899C4.47381 15.3274 4.33333 14.9713 4.33333 14.6V4.8H13.6667Z" stroke="#B2B2B2" stroke-linecap="round" stroke-linejoin="round"/>
</svg>
