<svg width="24" height="24" viewBox="0 0 24 24" fill="none" xmlns="http://www.w3.org/2000/svg">
<path fill-rule="evenodd" clip-rule="evenodd" d="M14.9693 3.65901C15.848 2.78033 17.2726 2.78033 18.1513 3.65901L19.5037 5.01137C20.3824 5.89006 20.3824 7.31468 19.5037 8.19335L9.14968 18.5474L4.4827 20.103C3.60322 20.3962 2.76652 19.5595 3.05968 18.68L4.61534 14.013L14.9693 3.65901ZM17.0907 4.71967C16.7978 4.42678 16.3229 4.42678 16.03 4.71967L15.0157 5.73394L17.4288 8.14697L18.443 7.13269C18.7359 6.8398 18.7359 6.36493 18.443 6.07203L17.0907 4.71967ZM16.3681 9.20763L13.9551 6.7946L6.33152 14.4182L8.74454 16.8312L16.3681 9.20763ZM7.35612 17.5641L5.59862 15.8066L4.71987 18.4428L7.35612 17.5641Z" fill="#6E6E6E"/>
</svg>
