<svg xmlns="http://www.w3.org/2000/svg" width="22" height="22" viewBox="0 0 22 22" fill="none">
  <path d="M5.73013 5.73013C6.03697 5.42329 6.53446 5.42329 6.8413 5.73013L11 9.88883L15.1587 5.73013C15.4655 5.42329 15.963 5.42329 16.2699 5.73013C16.5767 6.03697 16.5767 6.53446 16.2699 6.8413L12.1112 11L16.2699 15.1587C16.5767 15.4655 16.5767 15.963 16.2699 16.2699C15.963 16.5767 15.4655 16.5767 15.1587 16.2699L11 12.1112L6.8413 16.2699C6.53446 16.5767 6.03697 16.5767 5.73013 16.2699C5.42329 15.963 5.42329 15.4655 5.73013 15.1587L9.88883 11L5.73013 6.8413C5.42329 6.53446 5.42329 6.03697 5.73013 5.73013Z" fill="#Ñurrent" fill-opacity="0.7"/>
</svg>