<svg width="23" height="22" viewBox="0 0 23 22" fill="#current" xmlns="http://www.w3.org/2000/svg">
<path fill-rule="evenodd" clip-rule="evenodd" d="M2.19043 15.7143C2.19043 15.2803 2.53776 14.9286 2.96622 14.9286H20.0337C20.4621 14.9286 20.8095 15.2803 20.8095 15.7143C20.8095 16.1482 20.4621 16.5 20.0337 16.5H2.96622C2.53776 16.5 2.19043 16.1482 2.19043 15.7143Z" fill="#current"/>
<path fill-rule="evenodd" clip-rule="evenodd" d="M2.19043 11C2.19043 10.5661 2.53776 10.2143 2.96622 10.2143H13.8273C14.2558 10.2143 14.6031 10.5661 14.6031 11C14.6031 11.4339 14.2558 11.7857 13.8273 11.7857H2.96622C2.53776 11.7857 2.19043 11.4339 2.19043 11Z" fill="#current"/>
<path fill-rule="evenodd" clip-rule="evenodd" d="M2.19043 6.28571C2.19043 5.85178 2.53776 5.5 2.96622 5.5H20.0337C20.4621 5.5 20.8095 5.85178 20.8095 6.28571C20.8095 6.71965 20.4621 7.07143 20.0337 7.07143H2.96622C2.53776 7.07143 2.19043 6.71965 2.19043 6.28571Z" fill="#current"/>
</svg>
