<svg width="20" height="20" viewBox="0 0 20 20" fill="current" xmlns="http://www.w3.org/2000/svg">
<path d="M10.2941 1.94853C10.1103 1.85049 9.88971 1.85049 9.70588 1.94853L0.330882 6.94853C0.127218 7.05715 0 7.26918 0 7.5C0 7.73082 0.127218 7.94285 0.330882 8.05147L3.98438 10L0.330882 11.9485C0.127218 12.0572 0 12.2692 0 12.5C0 12.7308 0.127218 12.9428 0.330882 13.0515L9.70588 18.0515C9.88971 18.1495 10.1103 18.1495 10.2941 18.0515L19.6691 13.0515C19.8728 12.9428 20 12.7308 20 12.5C20 12.2692 19.8728 12.0572 19.6691 11.9485L16.0156 10L19.6691 8.05147C19.8728 7.94285 20 7.73082 20 7.5C20 7.26918 19.8728 7.05715 19.6691 6.94853L10.2941 1.94853ZM10 11.7917L1.95312 7.5L10 3.20833L18.0469 7.5L10 11.7917Z" fill="current"/>
</svg>
