<svg width="24" height="24" viewBox="0 0 24 24" fill="none" xmlns="http://www.w3.org/2000/svg">
<path d="M19.1472 6.32775C19.4684 6.02401 19.4684 5.53155 19.1472 5.22781C18.8259 4.92406 18.3051 4.92406 17.9839 5.22781L4.82297 17.6723C4.50174 17.976 4.50174 18.4685 4.82297 18.7722C5.14419 19.0759 5.66501 19.0759 5.98624 18.7722L19.1472 6.32775Z" fill="black"/>
<path d="M12.0051 8.88895C12.1432 8.88973 12.2025 9.04454 12.1049 9.13685L8.95707 12.1133C8.85944 12.2056 8.69572 12.1495 8.69489 12.019L8.69483 12C8.69483 10.2818 10.1679 8.88889 11.9851 8.88889L12.0051 8.88895Z" fill="black"/>
<path d="M11.8652 14.8631C11.7676 14.9555 11.8269 15.1103 11.965 15.1111L11.9851 15.1111C13.8022 15.1111 15.2753 13.7182 15.2753 12L15.2752 11.981C15.2744 11.8505 15.1107 11.7944 15.0131 11.8867L11.8652 14.8631Z" fill="black"/>
<path d="M13.0356 8.17108C13.0864 8.17693 13.1373 8.16067 13.1734 8.12649L14.3144 7.04764C14.4046 6.96235 14.3621 6.8171 14.2377 6.79066C13.532 6.64075 12.7796 6.55556 11.9851 6.55556C7.1273 6.55556 4.41012 9.72132 3.21364 11.3745C2.96261 11.7214 2.92134 12.1846 3.15122 12.576C3.58654 13.3172 4.37041 14.301 5.49401 15.1901C5.55871 15.2413 5.65392 15.2366 5.71357 15.1802L6.64709 14.2975C6.71695 14.2315 6.70975 14.1225 6.63315 14.0635C5.75808 13.3894 5.11929 12.6439 4.72669 12.042C5.90148 10.4752 8.16074 8.11111 11.9851 8.11111C12.3457 8.11111 12.696 8.13199 13.0356 8.17108Z" fill="black"/>
<path d="M9.73396 17.2068C9.61002 17.1799 9.56818 17.0352 9.65809 16.9502L10.7977 15.8726C10.8339 15.8383 10.885 15.8221 10.9359 15.8281C11.2734 15.8677 11.6232 15.8889 11.9851 15.8889C15.8835 15.8889 18.3747 13.4293 19.2994 11.9546C19.0021 11.3936 18.3581 10.611 17.3882 9.89261C17.3094 9.83423 17.3008 9.72349 17.3716 9.65655L18.3075 8.77162C18.3664 8.71595 18.46 8.71055 18.5248 8.76002C19.7168 9.67046 20.5535 10.7152 20.914 11.5571C21.0516 11.8785 21.0183 12.2281 20.8557 12.5125C19.8575 14.2587 16.8605 17.4444 11.9851 17.4444C11.1838 17.4444 10.4332 17.3584 9.73396 17.2068Z" fill="black"/>
</svg>
