<svg width="20" height="20" viewBox="0 0 48 50" fill="#current" xmlns="http://www.w3.org/2000/svg">
<g filter="url(#filter0_d_212_3)">
<path d="M17 15.75C17 16.2804 16.7893 16.7891 16.4142 17.1642C16.0391 17.5393 15.5304 17.75 15 17.75C14.4696 17.75 13.9609 17.5393 13.5858 17.1642C13.2107 16.7891 13 16.2804 13 15.75C13 15.2196 13.2107 14.7109 13.5858 14.3358C13.9609 13.9607 14.4696 13.75 15 13.75C15.5304 13.75 16.0391 13.9607 16.4142 14.3358C16.7893 14.7109 17 15.2196 17 15.75ZM17 23.75C17 24.2804 16.7893 24.7891 16.4142 25.1642C16.0391 25.5393 15.5304 25.75 15 25.75C14.4696 25.75 13.9609 25.5393 13.5858 25.1642C13.2107 24.7891 13 24.2804 13 23.75C13 23.2196 13.2107 22.7109 13.5858 22.3358C13.9609 21.9607 14.4696 21.75 15 21.75C15.5304 21.75 16.0391 21.9607 16.4142 22.3358C16.7893 22.7109 17 23.2196 17 23.75ZM15 33.75C15.5304 33.75 16.0391 33.5393 16.4142 33.1642C16.7893 32.7891 17 32.2804 17 31.75C17 31.2196 16.7893 30.7109 16.4142 30.3358C16.0391 29.9607 15.5304 29.75 15 29.75C14.4696 29.75 13.9609 29.9607 13.5858 30.3358C13.2107 30.7109 13 31.2196 13 31.75C13 32.2804 13.2107 32.7891 13.5858 33.1642C13.9609 33.5393 14.4696 33.75 15 33.75ZM19 15.75C19 15.06 19.56 14.5 20.25 14.5H33.75C34.0815 14.5 34.3995 14.6317 34.6339 14.8661C34.8683 15.1005 35 15.4185 35 15.75C35 16.0815 34.8683 16.3995 34.6339 16.6339C34.3995 16.8683 34.0815 17 33.75 17H20.25C19.56 17 19 16.44 19 15.75ZM20.25 22.5C19.9185 22.5 19.6005 22.6317 19.3661 22.8661C19.1317 23.1005 19 23.4185 19 23.75C19 24.0815 19.1317 24.3995 19.3661 24.6339C19.6005 24.8683 19.9185 25 20.25 25H33.75C34.0815 25 34.3995 24.8683 34.6339 24.6339C34.8683 24.3995 35 24.0815 35 23.75C35 23.4185 34.8683 23.1005 34.6339 22.8661C34.3995 22.6317 34.0815 22.5 33.75 22.5H20.25ZM19 31.75C19 31.06 19.56 30.5 20.25 30.5H33.75C34.0815 30.5 34.3995 30.6317 34.6339 30.8661C34.8683 31.1005 35 31.4185 35 31.75C35 32.0815 34.8683 32.3995 34.6339 32.6339C34.3995 32.8683 34.0815 33 33.75 33H20.25C19.56 33 19 32.44 19 31.75ZM12.25 6C10.5924 6 9.00268 6.65848 7.83058 7.83058C6.65848 9.00268 6 10.5924 6 12.25V35.75C6 37.4076 6.65848 38.9973 7.83058 40.1694C9.00268 41.3415 10.5924 42 12.25 42H35.75C37.4076 42 38.9973 41.3415 40.1694 40.1694C41.3415 38.9973 42 37.4076 42 35.75V12.25C42 10.5924 41.3415 9.00268 40.1694 7.83058C38.9973 6.65848 37.4076 6 35.75 6H12.25ZM8.5 12.25C8.5 11.2554 8.89509 10.3016 9.59835 9.59835C10.3016 8.89509 11.2554 8.5 12.25 8.5H35.75C36.7446 8.5 37.6984 8.89509 38.4016 9.59835C39.1049 10.3016 39.5 11.2554 39.5 12.25V35.75C39.5 36.7446 39.1049 37.6984 38.4016 38.4016C37.6984 39.1049 36.7446 39.5 35.75 39.5H12.25C11.2554 39.5 10.3016 39.1049 9.59835 38.4016C8.89509 37.6984 8.5 36.7446 8.5 35.75V12.25Z" fill="#current"/>
</g>
<defs>
<filter id="filter0_d_212_3" x="-4" y="0" width="56" height="56" filterUnits="userSpaceOnUse" color-interpolation-filters="sRGB">
<feFlood flood-opacity="0" result="BackgroundImageFix"/>
<feColorMatrix in="SourceAlpha" type="matrix" values="0 0 0 0 0 0 0 0 0 0 0 0 0 0 0 0 0 0 127 0" result="hardAlpha"/>
<feOffset dy="4"/>
<feGaussianBlur stdDeviation="2"/>
<feComposite in2="hardAlpha" operator="out"/>
<feColorMatrix type="matrix" values="0 0 0 0 0 0 0 0 0 0 0 0 0 0 0 0 0 0 0.25 0"/>
<feBlend mode="normal" in2="BackgroundImageFix" result="effect1_dropShadow_212_3"/>
<feBlend mode="normal" in="SourceGraphic" in2="effect1_dropShadow_212_3" result="shape"/>
</filter>
</defs>
</svg>
