<svg width="20" height="20" viewBox="0 0 20 20" fill="none" xmlns="http://www.w3.org/2000/svg">
<path d="M2.5 3.4375C2.5 2.91973 2.91973 2.5 3.4375 2.5H8.125C8.64277 2.5 9.0625 2.91973 9.0625 3.4375V16.5625C9.0625 17.0803 8.64277 17.5 8.125 17.5H3.4375C2.91973 17.5 2.5 17.0803 2.5 16.5625V3.4375Z" fill="#919191"/>
<path d="M10.9375 3.4375C10.9375 2.91973 11.3572 2.5 11.875 2.5H16.5625C17.0803 2.5 17.5 2.91973 17.5 3.4375V8.125C17.5 8.64277 17.0803 9.0625 16.5625 9.0625H11.875C11.3572 9.0625 10.9375 8.64277 10.9375 8.125V3.4375Z" fill="#919191"/>
<path d="M10.9375 11.875C10.9375 11.3572 11.3572 10.9375 11.875 10.9375H16.5625C17.0803 10.9375 17.5 11.3572 17.5 11.875V16.5625C17.5 17.0803 17.0803 17.5 16.5625 17.5H11.875C11.3572 17.5 10.9375 17.0803 10.9375 16.5625V11.875Z" fill="#919191"/>
</svg>
