<svg width="36" height="36" viewBox="0 0 36 36" fill="none" xmlns="http://www.w3.org/2000/svg">
<path d="M18.0003 23.5827C17.1901 23.5864 16.3905 23.3879 15.6673 23.0037C14.9441 22.6194 14.3177 22.0603 13.8397 21.3722L10.5078 23.3851C10.6346 23.5388 10.7847 23.6693 10.9521 23.7714L16.8811 27.3658C17.2277 27.5519 17.6112 27.649 18.0003 27.649C18.3894 27.649 18.773 27.5519 19.1195 27.3658L25.0485 23.7714C25.2159 23.6693 25.366 23.5388 25.4928 23.3851L22.1695 21.3363C21.6942 22.0323 21.0682 22.5991 20.3431 22.9897C19.6181 23.3804 18.815 23.5837 18.0003 23.5827Z" fill="#0079BF"/>
<path d="M12.7836 18.1585C12.7866 16.8806 13.2779 15.6486 14.1634 14.698C15.049 13.7473 16.2668 13.1447 17.584 13.0053V9.13184C17.3842 9.1719 17.1919 9.24142 17.014 9.33797L10.8331 12.7734C10.4971 12.9902 10.2178 13.279 10.017 13.6172C9.81607 13.9555 9.69914 14.3339 9.67529 14.7231V21.594C9.67804 21.7922 9.71101 21.9891 9.77324 22.178L13.2467 20.2456C12.943 19.5887 12.7852 18.8778 12.7836 18.1585Z" fill="#0079BF"/>
<path d="M25.2282 12.7711L19.3725 9.33784C19.204 9.24134 19.0219 9.17186 18.8325 9.13184V12.9942C19.628 13.0859 20.3913 13.3663 21.0607 13.8129C21.7302 14.2594 22.2873 14.8597 22.6871 15.5653C23.0868 16.2708 23.3181 17.0621 23.3623 17.8752C23.4065 18.6884 23.2624 19.5007 22.9416 20.2469L26.2322 22.178C26.2912 21.9892 26.3224 21.7925 26.325 21.5944V14.728C26.3037 14.3376 26.1935 13.9577 26.0032 13.6181C25.8128 13.2785 25.5475 12.9885 25.2282 12.7711Z" fill="#0079BF"/>
<path d="M29.4935 9.33008L19.8269 3.67779C19.26 3.38989 18.6345 3.23999 18.0002 3.23999C17.3659 3.23999 16.7404 3.38989 16.1735 3.67779L6.50685 9.33008C5.97625 9.68006 5.53449 10.1514 5.21714 10.7062C4.89983 11.2609 4.71589 11.8833 4.68018 12.5233V23.8278C4.71522 24.4691 4.89883 25.0931 5.21614 25.6494C5.53345 26.2056 5.97559 26.6785 6.50685 27.0299L16.1735 32.6823C16.7404 32.9702 17.3659 33.12 18.0002 33.12C18.6345 33.12 19.26 32.9702 19.8269 32.6823L29.4935 27.0299C30.0248 26.6785 30.4669 26.2056 30.7842 25.6494C31.1015 25.0931 31.2851 24.4691 31.3202 23.8278V12.5233C31.2845 11.8833 31.1005 11.2609 30.7832 10.7062C30.4659 10.1514 30.0241 9.68006 29.4935 9.33008ZM28.2524 22.5275C28.224 23.0202 28.0819 23.4993 27.8375 23.9263C27.5932 24.3534 27.2533 24.7165 26.8452 24.9866L19.3986 29.3386C18.9636 29.5609 18.4831 29.6768 17.9958 29.6768C17.5085 29.6768 17.028 29.5609 16.593 29.3386L9.15515 24.9866C8.74702 24.7165 8.40715 24.3534 8.16281 23.9263C7.91843 23.4993 7.77637 23.0202 7.74798 22.5275V13.8324C7.77637 13.3398 7.91843 12.8607 8.16281 12.4337C8.40715 12.0066 8.74702 11.6435 9.15515 11.3734L16.5843 7.02141C17.0192 6.79908 17.4997 6.68322 17.9871 6.68322C18.4744 6.68322 18.9549 6.79908 19.3899 7.02141L26.8364 11.3734C27.2462 11.6425 27.5878 12.0052 27.8337 12.4323C28.0796 12.8594 28.223 13.339 28.2524 13.8324V22.5275Z" fill="#0079BF"/>
<path d="M14.2539 18.18C14.2539 18.8874 14.4736 19.5791 14.8852 20.1673C15.2969 20.7556 15.882 21.2141 16.5665 21.4849C17.2511 21.7556 18.0043 21.8264 18.731 21.6884C19.4577 21.5504 20.1252 21.2097 20.6491 20.7094C21.1731 20.2092 21.5299 19.5717 21.6744 18.8779C21.819 18.1839 21.7448 17.4647 21.4612 16.811C21.1777 16.1574 20.6976 15.5987 20.0815 15.2056C19.4654 14.8126 18.7411 14.6028 18.0002 14.6028C17.0066 14.6028 16.0537 14.9797 15.3512 15.6505C14.6486 16.3214 14.2539 17.2313 14.2539 18.18Z" fill="#0079BF"/>
</svg>
