<svg width="18" height="18" viewBox="0 0 18 18" fill="none" xmlns="http://www.w3.org/2000/svg">
<path d="M0.75 1.75C0.75 1.19772 1.19772 0.75 1.75 0.75H7.08333C7.63562 0.75 8.08333 1.19772 8.08333 1.75V7.08333C8.08333 7.63562 7.63562 8.08333 7.08333 8.08333H1.75C1.19772 8.08333 0.75 7.63562 0.75 7.08333V1.75ZM0.75 10.9167C0.75 10.3644 1.19772 9.91667 1.75 9.91667H7.08333C7.63562 9.91667 8.08333 10.3644 8.08333 10.9167V16.25C8.08333 16.8023 7.63562 17.25 7.08333 17.25H1.75C1.19772 17.25 0.75 16.8023 0.75 16.25V10.9167ZM9.91667 1.75C9.91667 1.19772 10.3644 0.75 10.9167 0.75H16.25C16.8023 0.75 17.25 1.19772 17.25 1.75V7.08333C17.25 7.63562 16.8023 8.08333 16.25 8.08333H10.9167C10.3644 8.08333 9.91667 7.63562 9.91667 7.08333V1.75ZM9.91667 10.9167C9.91667 10.3644 10.3644 9.91667 10.9167 9.91667H16.25C16.8023 9.91667 17.25 10.3644 17.25 10.9167V16.25C17.25 16.8023 16.8023 17.25 16.25 17.25H10.9167C10.3644 17.25 9.91667 16.8023 9.91667 16.25V10.9167ZM11.75 2.58333V6.25H15.4167V2.58333H11.75ZM11.75 11.75V15.4167H15.4167V11.75H11.75ZM2.58333 2.58333V6.25H6.25V2.58333H2.58333ZM2.58333 11.75V15.4167H6.25V11.75H2.58333Z" fill="#0079BF"/>
</svg>
