<svg width="16" height="16" viewBox="0 0 16 16" fill="none" xmlns="http://www.w3.org/2000/svg">
<path d="M8 15C8.94677 15 9.71429 14.2165 9.71429 13.25H6.28571C6.28571 14.2165 7.05323 15 8 15Z" fill="#343A40"/>
<path d="M8 2.67847L7.31669 2.81935C5.75045 3.14225 4.57145 4.55655 4.57145 6.25C4.57145 6.79935 4.45628 8.17259 4.17813 9.52439C4.04006 10.1955 3.85532 10.8942 3.60979 11.5H12.3902C12.1447 10.8942 11.96 10.1955 11.8219 9.52439C11.5437 8.17259 11.4286 6.79934 11.4286 6.25C11.4286 4.55654 10.2496 3.14224 8.68332 2.81934L8 2.67847ZM13.3308 11.5C13.5222 11.8915 13.7441 12.2009 14 12.375H2C2.25588 12.2009 2.47781 11.8915 2.66917 11.5C3.43933 9.92445 3.7143 7.01927 3.7143 6.25C3.7143 4.13192 5.18874 2.36539 7.14701 1.96166C7.14426 1.93315 7.14286 1.90424 7.14286 1.875C7.14286 1.39175 7.52661 1 8 1C8.47339 1 8.85714 1.39175 8.85714 1.875C8.85714 1.90424 8.85574 1.93315 8.85299 1.96165C10.8113 2.36537 12.2857 4.13191 12.2857 6.25C12.2857 7.01927 12.5607 9.92445 13.3308 11.5Z" fill="#343A40"/>
</svg>
