<svg width="19" height="19" viewBox="0 0 19 19" fill="none" xmlns="http://www.w3.org/2000/svg">
<path d="M9.30769 18.6154C10.5928 18.6154 11.6346 17.5736 11.6346 16.2885H6.98077C6.98077 17.5736 8.02257 18.6154 9.30769 18.6154Z" fill="#919191"/>
<path d="M10.4655 1.27868C10.4692 1.24078 10.4712 1.20234 10.4712 1.16346C10.4712 0.5209 9.95025 0 9.30769 0C8.66513 0 8.14423 0.5209 8.14423 1.16346C8.14423 1.20235 8.14614 1.24079 8.14987 1.27869C5.49177 1.81552 3.49041 4.16442 3.49041 6.98077C3.49041 8.25779 2.90865 13.9615 1.16346 15.125H17.4519C15.7067 13.9615 15.125 8.25779 15.125 6.98077C15.125 4.16441 13.1236 1.81549 10.4655 1.27868Z" fill="#919191"/>
</svg>
