<svg width="18" height="18" viewBox="0 0 18 18" fill="none" xmlns="http://www.w3.org/2000/svg">
<path d="M10.2093 3.01092L11.4412 5.49501C11.6092 5.84081 12.0571 6.17249 12.4351 6.236L14.6679 6.61003C16.0957 6.84997 16.4317 7.89442 15.4028 8.92475L13.667 10.6749C13.373 10.9713 13.212 11.5429 13.303 11.9522L13.7999 14.1187C14.1919 15.8336 13.289 16.497 11.7842 15.6007L9.6914 14.3516C9.31344 14.1258 8.69051 14.1258 8.30556 14.3516L6.21279 15.6007C4.71495 16.497 3.80505 15.8266 4.19701 14.1187L4.69395 11.9522C4.78494 11.5429 4.62396 10.9713 4.33 10.6749L2.59419 8.92475C1.5723 7.89442 1.90126 6.84997 3.32911 6.61003L5.56186 6.236C5.93282 6.17249 6.38077 5.84081 6.54875 5.49501L7.78061 3.01092C8.45254 1.66303 9.54442 1.66303 10.2093 3.01092Z" stroke="#B2B2B2" stroke-width="1.5" stroke-linecap="round" stroke-linejoin="round"/>
</svg>
