<svg width="20" height="20" viewBox="0 0 20 20" fill="none" xmlns="http://www.w3.org/2000/svg">
<path d="M8.85416 16.6667C8.85416 16.6667 7.70833 16.6667 7.70833 15.5556C7.70833 14.4444 8.85416 11.1111 13.4375 11.1111C18.0208 11.1111 19.1667 14.4444 19.1667 15.5556C19.1667 16.6667 18.0208 16.6667 18.0208 16.6667H8.85416Z" fill="#current"/>
<path d="M13.4375 10C15.336 10 16.875 8.50761 16.875 6.66667C16.875 4.82572 15.336 3.33333 13.4375 3.33333C11.539 3.33333 10 4.82572 10 6.66667C10 8.50761 11.539 10 13.4375 10Z" fill="#current"/>
<path d="M6.81041 16.6667C6.64908 16.351 6.5625 15.9768 6.5625 15.5556C6.5625 14.0495 7.34058 12.5006 8.78075 11.4222C8.15073 11.2268 7.41625 11.1111 6.5625 11.1111C1.97916 11.1111 0.833328 14.4444 0.833328 15.5556C0.833328 16.6667 1.97916 16.6667 1.97916 16.6667H6.81041Z" fill="#current"/>
<path d="M5.98958 10C7.57164 10 8.85416 8.75634 8.85416 7.22222C8.85416 5.6881 7.57164 4.44444 5.98958 4.44444C4.40751 4.44444 3.125 5.6881 3.125 7.22222C3.125 8.75634 4.40751 10 5.98958 10Z" fill="#current"/>
</svg>
