<svg width="20" height="20" viewBox="0 0 20 20" fill="none" xmlns="http://www.w3.org/2000/svg">
<path d="M8.94144 2.5C5.29917 2.5 2.33577 5.46341 2.33577 9.10568C2.33577 12.7482 5.29917 15.7114 8.94144 15.7114C12.5839 15.7114 15.5471 12.7482 15.5471 9.10568C15.5471 5.46341 12.5839 2.5 8.94144 2.5ZM8.94144 14.4919C5.97153 14.4919 3.55528 12.0756 3.55528 9.10571C3.55528 6.1358 5.97153 3.71951 8.94144 3.71951C11.9113 3.71951 14.3276 6.13577 14.3276 9.10568C14.3276 12.0756 11.9113 14.4919 8.94144 14.4919Z" fill="#B2B2B2"/>
<path d="M17.1571 16.4591L13.6612 12.9632C13.4229 12.725 13.0372 12.725 12.799 12.9632C12.5607 13.2012 12.5607 13.5874 12.799 13.8254L16.2949 17.3213C16.414 17.4404 16.5699 17.5 16.726 17.5C16.8819 17.5 17.038 17.4404 17.1571 17.3213C17.3953 17.0833 17.3953 16.6971 17.1571 16.4591Z" fill="#B2B2B2"/>
</svg>
