<svg width="20" height="20" viewBox="0 0 20 20" fill="none" xmlns="http://www.w3.org/2000/svg">
<path d="M8.94149 2.5C5.29922 2.5 2.33582 5.46341 2.33582 9.10568C2.33582 12.7482 5.29922 15.7114 8.94149 15.7114C12.584 15.7114 15.5472 12.7482 15.5472 9.10568C15.5472 5.46341 12.584 2.5 8.94149 2.5ZM8.94149 14.4919C5.97158 14.4919 3.55532 12.0756 3.55532 9.10571C3.55532 6.1358 5.97158 3.71951 8.94149 3.71951C11.9114 3.71951 14.3276 6.13577 14.3276 9.10568C14.3276 12.0756 11.9114 14.4919 8.94149 14.4919Z" fill="#B2B2B2"/>
<path d="M17.1572 16.4591L13.6612 12.9632C13.423 12.725 13.0372 12.725 12.799 12.9632C12.5608 13.2012 12.5608 13.5874 12.799 13.8254L16.2949 17.3213C16.414 17.4404 16.57 17.5 16.7261 17.5C16.8819 17.5 17.038 17.4404 17.1572 17.3213C17.3954 17.0833 17.3954 16.6971 17.1572 16.4591Z" fill="#B2B2B2"/>
</svg>
