<svg width="23" height="25" viewBox="-4 -5 23 25" fill="#current" xmlns="http://www.w3.org/2000/svg">
<path fill-rule="evenodd" clip-rule="evenodd" d="M18.8096 10.7143C18.8096 10.2803 18.4622 9.92857 18.0338 9.92857H0.966318C0.537859 9.92857 0.190523 10.2803 0.190523 10.7143C0.190523 11.1482 0.537859 11.5 0.966318 11.5H18.0338C18.4622 11.5 18.8096 11.1482 18.8096 10.7143Z" fill="#current"/>
<path fill-rule="evenodd" clip-rule="evenodd" d="M18.8096 6C18.8096 5.56606 18.4622 5.21429 18.0338 5.21429H7.17267C6.74421 5.21429 6.39687 5.56606 6.39687 6C6.39687 6.43394 6.74421 6.78571 7.17267 6.78571H18.0338C18.4622 6.78571 18.8096 6.43394 18.8096 6Z" fill="#current"/>
<path fill-rule="evenodd" clip-rule="evenodd" d="M18.8096 1.28571C18.8096 0.851776 18.4622 0.5 18.0338 0.5H0.966318C0.537859 0.5 0.190523 0.851776 0.190523 1.28571C0.190523 1.71965 0.537859 2.07143 0.966318 2.07143H18.0338C18.4622 2.07143 18.8096 1.71965 18.8096 1.28571Z" fill="#current"/>
</svg>
