<svg width="24" height="24" viewBox="0 0 24 24" fill="none" xmlns="http://www.w3.org/2000/svg">
<path fill-rule="evenodd" clip-rule="evenodd" d="M14.9573 12C14.9573 13.8935 13.4023 15.4286 11.4842 15.4286C9.56613 15.4286 8.01121 13.8935 8.01121 12C8.01121 10.1065 9.56613 8.57143 11.4842 8.57143C13.4023 8.57143 14.9573 10.1065 14.9573 12ZM11.4842 11.1429C11.4842 11.6162 11.0955 12 10.616 12C10.1365 12 9.74772 11.6162 9.74772 11.1429C9.74772 10.6695 10.1365 10.2857 10.616 10.2857C11.0955 10.2857 11.4842 10.6695 11.4842 11.1429Z" fill="black"/>
<path fill-rule="evenodd" clip-rule="evenodd" d="M11.4842 6C6.3566 6 3.48846 9.4888 2.22551 11.3107C1.96053 11.693 1.91697 12.2034 2.15963 12.6348C3.24735 14.5683 6.39668 18 11.4842 18C16.6305 18 19.794 14.4892 20.8477 12.5647C21.0193 12.2514 21.0544 11.8661 20.9092 11.5119C20.471 10.4432 19.3659 9.07816 17.789 7.98412C16.1913 6.87566 14.0456 6 11.4842 6ZM11.4842 16.2857C7.45193 16.2857 4.84556 13.6836 3.82262 12.0463C5.06267 10.3196 7.44744 7.71429 11.4842 7.71429C13.6324 7.71429 15.4359 8.44691 16.7905 9.38669C18.037 10.2515 18.8521 11.255 19.205 11.9499C18.2288 13.5752 15.5993 16.2857 11.4842 16.2857Z" fill="black"/>
</svg>
