<svg width="16" height="16" viewBox="0 0 16 16" fill="none" xmlns="http://www.w3.org/2000/svg">
<path d="M6.4 2.4H2.4L2.4 13.6H6.4V2.4ZM13.6 2.4H9.6V6.4H13.6V2.4ZM13.6 9.6V13.6H9.6V9.6H13.6ZM1.6 2.4C1.6 1.95817 1.95817 1.6 2.4 1.6H6.4C6.84183 1.6 7.2 1.95817 7.2 2.4V13.6C7.2 14.0418 6.84183 14.4 6.4 14.4H2.4C1.95817 14.4 1.6 14.0418 1.6 13.6V2.4ZM8.8 2.4C8.8 1.95817 9.15817 1.6 9.6 1.6H13.6C14.0418 1.6 14.4 1.95817 14.4 2.4V6.4C14.4 6.84183 14.0418 7.2 13.6 7.2H9.6C9.15817 7.2 8.8 6.84183 8.8 6.4V2.4ZM9.6 8.8C9.15817 8.8 8.8 9.15817 8.8 9.6V13.6C8.8 14.0418 9.15817 14.4 9.6 14.4H13.6C14.0418 14.4 14.4 14.0418 14.4 13.6V9.6C14.4 9.15817 14.0418 8.8 13.6 8.8H9.6Z" fill="#343A40"/>
</svg>
