<svg xmlns="http://www.w3.org/2000/svg" width="24" height="24" viewBox="0 0 24 24" fill="none">
<path d="M12 6.9375C12 6.62684 11.7482 6.375 11.4375 6.375C11.1268 6.375 10.875 6.62684 10.875 6.9375V13.125C10.875 13.3269 10.9832 13.5132 11.1584 13.6134L15.0959 15.8634C15.3657 16.0175 15.7093 15.9238 15.8634 15.6541C16.0175 15.3843 15.9238 15.0407 15.6541 14.8866L12 12.7986V6.9375Z" fill="#B2B2B2"/>
<path d="M12 21C16.9706 21 21 16.9706 21 12C21 7.02944 16.9706 3 12 3C7.02944 3 3 7.02944 3 12C3 16.9706 7.02944 21 12 21ZM19.875 12C19.875 16.3492 16.3492 19.875 12 19.875C7.65076 19.875 4.125 16.3492 4.125 12C4.125 7.65076 7.65076 4.125 12 4.125C16.3492 4.125 19.875 7.65076 19.875 12Z" fill="#B2B2B2"/>
<path d="M12 6.9375C12 6.62684 11.7482 6.375 11.4375 6.375C11.1268 6.375 10.875 6.62684 10.875 6.9375V13.125C10.875 13.3269 10.9832 13.5132 11.1584 13.6134L15.0959 15.8634C15.3657 16.0175 15.7093 15.9238 15.8634 15.6541C16.0175 15.3843 15.9238 15.0407 15.6541 14.8866L12 12.7986V6.9375Z" stroke="#B2B2B2" stroke-width="0.2" stroke-linecap="round" stroke-linejoin="round"/>
<path d="M12 21C16.9706 21 21 16.9706 21 12C21 7.02944 16.9706 3 12 3C7.02944 3 3 7.02944 3 12C3 16.9706 7.02944 21 12 21ZM19.875 12C19.875 16.3492 16.3492 19.875 12 19.875C7.65076 19.875 4.125 16.3492 4.125 12C4.125 7.65076 7.65076 4.125 12 4.125C16.3492 4.125 19.875 7.65076 19.875 12Z" stroke="#B2B2B2" stroke-width="0.2" stroke-linecap="round" stroke-linejoin="round"/>
</svg>