<svg width="20" height="20" viewBox="0 0 20 20" fill="none" xmlns="http://www.w3.org/2000/svg">
<path d="M11.4632 2.76082C11.0332 1.30195 8.96681 1.30195 8.53682 2.76082L8.43254 3.11462C8.15778 4.04677 7.09308 4.48779 6.23967 4.02293L5.91577 3.8465C4.58013 3.11898 3.11898 4.58013 3.8465 5.91576L4.02293 6.23967C4.48779 7.09308 4.04678 8.15778 3.11462 8.43253L2.76082 8.53681C1.30195 8.96681 1.30195 11.0332 2.76082 11.4632L3.11462 11.5675C4.04678 11.8422 4.48779 12.9069 4.02293 13.7603L3.8465 14.0842C3.11898 15.4199 4.58013 16.881 5.91576 16.1535L6.23967 15.9771C7.09308 15.5122 8.15779 15.9532 8.43254 16.8854L8.53682 17.2392C8.96681 18.6981 11.0332 18.698 11.4632 17.2392L11.5675 16.8854C11.8422 15.9532 12.9069 15.5122 13.7603 15.9771L14.0842 16.1535C15.4199 16.881 16.881 15.4199 16.1535 14.0842L15.9771 13.7603C15.5122 12.9069 15.9532 11.8422 16.8854 11.5675L17.2392 11.4632C18.6981 11.0332 18.6981 8.96681 17.2392 8.53681L16.8854 8.43253C15.9532 8.15778 15.5122 7.09308 15.9771 6.23967L16.1535 5.91576C16.881 4.58013 15.4199 3.11898 14.0842 3.8465L13.7603 4.02293C12.9069 4.48779 11.8422 4.04677 11.5675 3.11462L11.4632 2.76082ZM10 13.0508C8.31507 13.0508 6.94916 11.6849 6.94916 10C6.94916 8.31506 8.31507 6.94915 10 6.94915C11.6849 6.94915 13.0509 8.31506 13.0509 10C13.0509 11.6849 11.6849 13.0508 10 13.0508Z" fill="#919191"/>
</svg>
