<svg width="18" height="18" viewBox="0 0 18 18" fill="current" xmlns="http://www.w3.org/2000/svg" >
<path fill-rule="evenodd" clip-rule="evenodd" d="M2.25 14.0625C2.25 13.7518 2.50184 13.5 2.8125 13.5H10.6875C10.9982 13.5 11.25 13.7518 11.25 14.0625C11.25 14.3732 10.9982 14.625 10.6875 14.625H2.8125C2.50184 14.625 2.25 14.3732 2.25 14.0625Z" fill="#919191"/>
<path fill-rule="evenodd" clip-rule="evenodd" d="M2.25 10.6875C2.25 10.3768 2.50184 10.125 2.8125 10.125H15.1875C15.4982 10.125 15.75 10.3768 15.75 10.6875C15.75 10.9982 15.4982 11.25 15.1875 11.25H2.8125C2.50184 11.25 2.25 10.9982 2.25 10.6875Z" fill="#919191"/>
<path fill-rule="evenodd" clip-rule="evenodd" d="M2.25 7.3125C2.25 7.00184 2.50184 6.75 2.8125 6.75H15.1875C15.4982 6.75 15.75 7.00184 15.75 7.3125C15.75 7.62316 15.4982 7.875 15.1875 7.875H2.8125C2.50184 7.875 2.25 7.62316 2.25 7.3125Z" fill="#919191"/>
<path fill-rule="evenodd" clip-rule="evenodd" d="M2.25 3.9375C2.25 3.62684 2.50184 3.375 2.8125 3.375H15.1875C15.4982 3.375 15.75 3.62684 15.75 3.9375C15.75 4.24816 15.4982 4.5 15.1875 4.5H2.8125C2.50184 4.5 2.25 4.24816 2.25 3.9375Z" fill="#919191"/>
</svg>
